{
	"asset":{
		"generator":"Khronos glTF Blender I/O v4.5.47",
		"version":"2.0"
	},
	"scene":0,
	"scenes":[
		{
			"name":"0_Rocket",
			"nodes":[
				0
			]
		}
	],
	"nodes":[
		{
			"mesh":0,
			"name":"Rocket",
			"scale":[
				0.20669761300086975,
				0.20669761300086975,
				0.20669761300086975
			],
			"translation":[
				0,
				-0.038617849349975586,
				0
			]
		}
	],
	"materials":[
		{
			"name":"F44336",
			"pbrMetallicRoughness":{
				"baseColorFactor":[
					0.9100000262260437,
					0.05000000074505806,
					0.029999999329447746,
					1
				],
				"metallicFactor":0,
				"roughnessFactor":0.9039215445518494
			}
		},
		{
			"name":"FFFFFF",
			"pbrMetallicRoughness":{
				"metallicFactor":0,
				"roughnessFactor":0.9039215445518494
			}
		},
		{
			"name":"455A64",
			"pbrMetallicRoughness":{
				"baseColorFactor":[
					0.05999999865889549,
					0.10000000149011612,
					0.12999999523162842,
					1
				],
				"metallicFactor":0,
				"roughnessFactor":0.9039215445518494
			}
		},
		{
			"name":"78909C",
			"pbrMetallicRoughness":{
				"baseColorFactor":[
					0.1899999976158142,
					0.2800000011920929,
					0.3400000035762787,
					1
				],
				"metallicFactor":0,
				"roughnessFactor":0.9039215445518494
			}
		},
		{
			"name":"80DEEA",
			"pbrMetallicRoughness":{
				"baseColorFactor":[
					0.2199999988079071,
					0.7400000095367432,
					0.8299999833106995,
					1
				],
				"metallicFactor":0,
				"roughnessFactor":0.9039215445518494
			}
		}
	],
	"meshes":[
		{
			"name":"Rocket_Ship_Circle.003_1",
			"primitives":[
				{
					"attributes":{
						"POSITION":0,
						"NORMAL":1
					},
					"indices":2,
					"material":0
				},
				{
					"attributes":{
						"POSITION":3,
						"NORMAL":4
					},
					"indices":5,
					"material":1
				},
				{
					"attributes":{
						"POSITION":6,
						"NORMAL":7
					},
					"indices":8,
					"material":2
				},
				{
					"attributes":{
						"POSITION":9,
						"NORMAL":10
					},
					"indices":11,
					"material":3
				},
				{
					"attributes":{
						"POSITION":12,
						"NORMAL":13
					},
					"indices":14,
					"material":4
				}
			]
		}
	],
	"accessors":[
		{
			"bufferView":0,
			"componentType":5126,
			"count":340,
			"max":[
				3.2945470809936523,
				4.665992736816406,
				3.2945470809936523
			],
			"min":[
				-3.2945470809936523,
				-4.644680023193359,
				-3.2945470809936523
			],
			"type":"VEC3"
		},
		{
			"bufferView":1,
			"componentType":5126,
			"count":340,
			"type":"VEC3"
		},
		{
			"bufferView":2,
			"componentType":5123,
			"count":624,
			"type":"SCALAR"
		},
		{
			"bufferView":3,
			"componentType":5126,
			"count":144,
			"max":[
				1.9581538438796997,
				1.639932632446289,
				1.9581540822982788
			],
			"min":[
				-1.9581540822982788,
				-3.885186195373535,
				-1.9581538438796997
			],
			"type":"VEC3"
		},
		{
			"bufferView":4,
			"componentType":5126,
			"count":144,
			"type":"VEC3"
		},
		{
			"bufferView":5,
			"componentType":5123,
			"count":240,
			"type":"SCALAR"
		},
		{
			"bufferView":6,
			"componentType":5126,
			"count":560,
			"max":[
				2.062674045562744,
				1.7492117881774902,
				2.062674045562744
			],
			"min":[
				-2.062674045562744,
				-4.191070079803467,
				-2.062674045562744
			],
			"type":"VEC3"
		},
		{
			"bufferView":7,
			"componentType":5126,
			"count":560,
			"type":"VEC3"
		},
		{
			"bufferView":8,
			"componentType":5123,
			"count":1056,
			"type":"SCALAR"
		},
		{
			"bufferView":9,
			"componentType":5126,
			"count":339,
			"max":[
				0.8525948524475098,
				5.017051696777344,
				0.8525950312614441
			],
			"min":[
				-0.8525950908660889,
				-4.524839401245117,
				-0.8525949120521545
			],
			"type":"VEC3"
		},
		{
			"bufferView":10,
			"componentType":5126,
			"count":339,
			"type":"VEC3"
		},
		{
			"bufferView":11,
			"componentType":5123,
			"count":480,
			"type":"SCALAR"
		},
		{
			"bufferView":12,
			"componentType":5126,
			"count":36,
			"max":[
				1.9293898344039917,
				0.4677858352661133,
				1.9261291027069092
			],
			"min":[
				-1.9293900728225708,
				-0.35929393768310547,
				-1.92612886428833
			],
			"type":"VEC3"
		},
		{
			"bufferView":13,
			"componentType":5126,
			"count":36,
			"type":"VEC3"
		},
		{
			"bufferView":14,
			"componentType":5123,
			"count":96,
			"type":"SCALAR"
		}
	],
	"bufferViews":[
		{
			"buffer":0,
			"byteLength":4080,
			"byteOffset":0,
			"target":34962
		},
		{
			"buffer":0,
			"byteLength":4080,
			"byteOffset":4080,
			"target":34962
		},
		{
			"buffer":0,
			"byteLength":1248,
			"byteOffset":8160,
			"target":34963
		},
		{
			"buffer":0,
			"byteLength":1728,
			"byteOffset":9408,
			"target":34962
		},
		{
			"buffer":0,
			"byteLength":1728,
			"byteOffset":11136,
			"target":34962
		},
		{
			"buffer":0,
			"byteLength":480,
			"byteOffset":12864,
			"target":34963
		},
		{
			"buffer":0,
			"byteLength":6720,
			"byteOffset":13344,
			"target":34962
		},
		{
			"buffer":0,
			"byteLength":6720,
			"byteOffset":20064,
			"target":34962
		},
		{
			"buffer":0,
			"byteLength":2112,
			"byteOffset":26784,
			"target":34963
		},
		{
			"buffer":0,
			"byteLength":4068,
			"byteOffset":28896,
			"target":34962
		},
		{
			"buffer":0,
			"byteLength":4068,
			"byteOffset":32964,
			"target":34962
		},
		{
			"buffer":0,
			"byteLength":960,
			"byteOffset":37032,
			"target":34963
		},
		{
			"buffer":0,
			"byteLength":432,
			"byteOffset":37992,
			"target":34962
		},
		{
			"buffer":0,
			"byteLength":432,
			"byteOffset":38424,
			"target":34962
		},
		{
			"buffer":0,
			"byteLength":192,
			"byteOffset":38856,
			"target":34963
		}
	],
	"buffers":[
		{
			"byteLength":39048,
			"uri":"rocket.bin"
		}
	]
}
