{
	"asset":{
		"generator":"Khronos glTF Blender I/O v4.5.47",
		"version":"2.0"
	},
	"scene":0,
	"scenes":[
		{
			"name":"0_Rocket",
			"nodes":[
				0
			]
		}
	],
	"nodes":[
		{
			"mesh":0,
			"name":"Rocket_Collider",
			"translation":[
				0,
				0.19005921483039856,
				0
			]
		}
	],
	"materials":[
		{
			"doubleSided":true,
			"name":"MI_COL",
			"pbrMetallicRoughness":{
				"baseColorFactor":[
					0,
					0.5,
					1,
					1
				],
				"metallicFactor":0,
				"roughnessFactor":0.4000000059604645
			}
		}
	],
	"meshes":[
		{
			"name":"Rocket.001-convcolonly_001_data",
			"primitives":[
				{
					"attributes":{
						"POSITION":0,
						"NORMAL":1
					},
					"indices":2,
					"material":0
				}
			]
		}
	],
	"accessors":[
		{
			"bufferView":0,
			"componentType":5126,
			"count":318,
			"max":[
				0.6809750199317932,
				0.808335542678833,
				0.6809750199317932
			],
			"min":[
				-0.6809750199317932,
				-1.1887212991714478,
				-0.6809750199317932
			],
			"type":"VEC3"
		},
		{
			"bufferView":1,
			"componentType":5126,
			"count":318,
			"type":"VEC3"
		},
		{
			"bufferView":2,
			"componentType":5123,
			"count":378,
			"type":"SCALAR"
		}
	],
	"bufferViews":[
		{
			"buffer":0,
			"byteLength":3816,
			"byteOffset":0,
			"target":34962
		},
		{
			"buffer":0,
			"byteLength":3816,
			"byteOffset":3816,
			"target":34962
		},
		{
			"buffer":0,
			"byteLength":756,
			"byteOffset":7632,
			"target":34963
		}
	],
	"buffers":[
		{
			"byteLength":8388,
			"uri":"rocket_collider.bin"
		}
	]
}
